<?xml version="1.0" encoding="UTF-8"?><svg xmlns="http://www.w3.org/2000/svg" xmlns:xlink="http://www.w3.org/1999/xlink" fill-opacity="1" color-rendering="auto" color-interpolation="auto" text-rendering="auto" stroke="black" stroke-linecap="square" width="1154" stroke-miterlimit="10" shape-rendering="auto" stroke-opacity="1" fill="black" stroke-dasharray="none" font-weight="normal" stroke-width="1" height="1456" font-family="'Dialog'" font-style="normal" stroke-linejoin="miter" font-size="12px" stroke-dashoffset="0" image-rendering="auto">
  <!--Generated by ySVG 2.5-->
  <defs id="genericDefs"/>
  <g>
    <defs id="defs1">
      <clipPath clipPathUnits="userSpaceOnUse" id="clipPath1">
        <path d="M0 0 L1154 0 L1154 1456 L0 1456 L0 0 Z"/>
      </clipPath>
      <clipPath clipPathUnits="userSpaceOnUse" id="clipPath2">
        <path d="M318 3 L895 3 L895 731 L318 731 L318 3 Z"/>
      </clipPath>
      <clipPath clipPathUnits="userSpaceOnUse" id="clipPath3">
        <path d="M705.0411 425.6466 L705.0411 455.2442 L775.0411 455.2442 L775.0411 425.6466 Z"/>
      </clipPath>
    </defs>
    <g fill="white" text-rendering="geometricPrecision" shape-rendering="geometricPrecision" transform="scale(2,2) translate(-318,-3)" stroke="white">
      <rect x="318" width="577" height="728" y="3" clip-path="url(#clipPath2)" stroke="none"/>
    </g>
    <g fill="rgb(153,204,255)" text-rendering="geometricPrecision" shape-rendering="geometricPrecision" transform="matrix(2,0,0,2,-636,-6)" stroke="rgb(153,204,255)">
      <rect x="389.0846" y="6.7028" clip-path="url(#clipPath2)" width="126.2" rx="23.6152" ry="23.6152" height="47.2304" stroke="none"/>
    </g>
    <g text-rendering="geometricPrecision" stroke-miterlimit="1.45" shape-rendering="geometricPrecision" transform="matrix(2,0,0,2,-636,-6)" stroke-linecap="butt">
      <rect x="389.0846" y="6.7028" clip-path="url(#clipPath2)" fill="none" width="126.2" rx="23.6152" ry="23.6152" height="47.2304"/>
      <text x="426.1719" xml:space="preserve" y="27.775" clip-path="url(#clipPath2)" font-family="sans-serif" stroke="none">initializing</text>
      <text x="433.5107" xml:space="preserve" y="41.1813" clip-path="url(#clipPath2)" font-family="sans-serif" stroke="none">setup()</text>
    </g>
    <g fill="rgb(153,204,255)" text-rendering="geometricPrecision" shape-rendering="geometricPrecision" transform="matrix(2,0,0,2,-636,-6)" stroke="rgb(153,204,255)">
      <rect x="389.0846" y="144.674" clip-path="url(#clipPath2)" width="126.2" rx="23.6152" ry="23.6152" height="47.2304" stroke="none"/>
    </g>
    <g text-rendering="geometricPrecision" stroke-miterlimit="1.45" shape-rendering="geometricPrecision" transform="matrix(2,0,0,2,-636,-6)" stroke-linecap="butt">
      <rect x="389.0846" y="144.674" clip-path="url(#clipPath2)" fill="none" width="126.2" rx="23.6152" ry="23.6152" height="47.2304"/>
      <text x="400.499" xml:space="preserve" y="165.7462" clip-path="url(#clipPath2)" font-family="sans-serif" stroke="none">readyForCommand</text>
      <text x="422.1729" xml:space="preserve" y="179.1525" clip-path="url(#clipPath2)" font-family="sans-serif" stroke="none">main loop()</text>
    </g>
    <g fill="rgb(153,204,255)" text-rendering="geometricPrecision" shape-rendering="geometricPrecision" transform="matrix(2,0,0,2,-636,-6)" stroke="rgb(153,204,255)">
      <rect x="389.0846" y="291.636" clip-path="url(#clipPath2)" width="126.2" rx="23.6152" ry="23.6152" height="47.2304" stroke="none"/>
    </g>
    <g text-rendering="geometricPrecision" stroke-miterlimit="1.45" shape-rendering="geometricPrecision" transform="matrix(2,0,0,2,-636,-6)" stroke-linecap="butt">
      <rect x="389.0846" y="291.636" clip-path="url(#clipPath2)" fill="none" width="126.2" rx="23.6152" ry="23.6152" height="47.2304"/>
      <text x="395.4922" xml:space="preserve" y="312.7082" clip-path="url(#clipPath2)" font-family="sans-serif" stroke="none">processingCommand</text>
      <text x="402.834" xml:space="preserve" y="326.1145" clip-path="url(#clipPath2)" font-family="sans-serif" stroke="none">processMessage()</text>
    </g>
    <g fill="rgb(153,204,255)" text-rendering="geometricPrecision" shape-rendering="geometricPrecision" transform="matrix(2,0,0,2,-636,-6)" stroke="rgb(153,204,255)">
      <rect x="389.0846" y="473.7103" clip-path="url(#clipPath2)" width="126.2" rx="23.6152" ry="23.6152" height="47.2304" stroke="none"/>
    </g>
    <g text-rendering="geometricPrecision" stroke-miterlimit="1.45" shape-rendering="geometricPrecision" transform="matrix(2,0,0,2,-636,-6)" stroke-linecap="butt">
      <rect x="389.0846" y="473.7103" clip-path="url(#clipPath2)" fill="none" width="126.2" rx="23.6152" ry="23.6152" height="47.2304"/>
      <text x="401.1582" xml:space="preserve" y="494.7825" clip-path="url(#clipPath2)" font-family="sans-serif" stroke="none">readyForResponse</text>
      <text x="422.1729" xml:space="preserve" y="508.1888" clip-path="url(#clipPath2)" font-family="sans-serif" stroke="none">main loop()</text>
    </g>
    <g fill="rgb(153,204,255)" text-rendering="geometricPrecision" shape-rendering="geometricPrecision" transform="matrix(2,0,0,2,-636,-6)" stroke="rgb(153,204,255)">
      <rect x="389.0846" y="614.4894" clip-path="url(#clipPath2)" width="126.2" rx="23.6152" ry="23.6152" height="47.2304" stroke="none"/>
    </g>
    <g text-rendering="geometricPrecision" stroke-miterlimit="1.45" shape-rendering="geometricPrecision" transform="matrix(2,0,0,2,-636,-6)" stroke-linecap="butt">
      <rect x="389.0846" y="614.4894" clip-path="url(#clipPath2)" fill="none" width="126.2" rx="23.6152" ry="23.6152" height="47.2304"/>
      <text x="422.4951" xml:space="preserve" y="635.5616" clip-path="url(#clipPath2)" font-family="sans-serif" stroke="none">responding</text>
      <text x="401.501" xml:space="preserve" y="648.9679" clip-path="url(#clipPath2)" font-family="sans-serif" stroke="none">writeOutputBuffer()</text>
    </g>
    <g fill="rgb(153,204,255)" text-rendering="geometricPrecision" shape-rendering="geometricPrecision" transform="matrix(2,0,0,2,-636,-6)" stroke="rgb(153,204,255)">
      <rect x="567.6566" y="376.117" clip-path="url(#clipPath2)" width="126.2" rx="12.6152" ry="12.6152" height="25.2304" stroke="none"/>
    </g>
    <g text-rendering="geometricPrecision" stroke-miterlimit="1.45" shape-rendering="geometricPrecision" transform="matrix(2,0,0,2,-636,-6)" stroke-linecap="butt">
      <rect x="567.6566" y="376.117" clip-path="url(#clipPath2)" fill="none" width="126.2" rx="12.6152" ry="12.6152" height="25.2304"/>
      <text x="612.7419" xml:space="preserve" y="392.8924" clip-path="url(#clipPath2)" font-family="sans-serif" stroke="none">tainted</text>
    </g>
    <g fill="rgb(204,255,204)" text-rendering="geometricPrecision" shape-rendering="geometricPrecision" transform="matrix(2,0,0,2,-636,-6)" stroke="rgb(204,255,204)">
      <path d="M401.6846 570.8065 L411.7845 552.3065 L492.5846 552.3065 L502.6846 570.8065 L492.5846 589.3065 L411.7845 589.3065 Z" fill-rule="evenodd" clip-path="url(#clipPath2)" stroke="none"/>
    </g>
    <g text-rendering="geometricPrecision" stroke-miterlimit="1.45" shape-rendering="geometricPrecision" transform="matrix(2,0,0,2,-636,-6)" stroke-linecap="butt">
      <path fill="none" d="M401.6846 570.8065 L411.7845 552.3065 L492.5846 552.3065 L502.6846 570.8065 L492.5846 589.3065 L411.7845 589.3065 Z" fill-rule="evenodd" clip-path="url(#clipPath2)"/>
      <text x="416.8291" xml:space="preserve" y="574.9667" clip-path="url(#clipPath2)" font-family="sans-serif" stroke="none">requestEvent</text>
    </g>
    <g fill="rgb(255,255,153)" text-rendering="geometricPrecision" shape-rendering="geometricPrecision" transform="matrix(2,0,0,2,-636,-6)" stroke="rgb(255,255,153)">
      <path d="M389.6846 96.174 L402.1846 77.674 L502.1846 77.674 L514.6846 96.174 L502.1846 114.674 L402.1846 114.674 Z" fill-rule="evenodd" clip-path="url(#clipPath2)" stroke="none"/>
    </g>
    <g text-rendering="geometricPrecision" stroke-miterlimit="1.45" shape-rendering="geometricPrecision" transform="matrix(2,0,0,2,-636,-6)" stroke-linecap="butt">
      <path fill="none" d="M389.6846 96.174 L402.1846 77.674 L502.1846 77.674 L514.6846 96.174 L502.1846 114.674 L402.1846 114.674 Z" fill-rule="evenodd" clip-path="url(#clipPath2)"/>
      <text x="437.5068" xml:space="preserve" y="93.631" clip-path="url(#clipPath2)" font-family="sans-serif" stroke="none">setup</text>
      <text x="431.5039" xml:space="preserve" y="107.0373" clip-path="url(#clipPath2)" font-family="sans-serif" stroke="none">finished</text>
    </g>
    <g fill="rgb(255,255,153)" text-rendering="geometricPrecision" shape-rendering="geometricPrecision" transform="matrix(2,0,0,2,-636,-6)" stroke="rgb(255,255,153)">
      <path d="M383.1846 388.7322 L396.9846 370.2322 L507.3846 370.2322 L521.1846 388.7322 L507.3846 407.2322 L396.9846 407.2322 Z" fill-rule="evenodd" clip-path="url(#clipPath2)" stroke="none"/>
    </g>
    <g text-rendering="geometricPrecision" stroke-miterlimit="1.45" shape-rendering="geometricPrecision" transform="matrix(2,0,0,2,-636,-6)" stroke-linecap="butt">
      <path fill="none" d="M383.1846 388.7322 L396.9846 370.2322 L507.3846 370.2322 L521.1846 388.7322 L507.3846 407.2322 L396.9846 407.2322 Z" fill-rule="evenodd" clip-path="url(#clipPath2)"/>
      <text x="423.1689" xml:space="preserve" y="386.1892" clip-path="url(#clipPath2)" font-family="sans-serif" stroke="none">processing</text>
      <text x="431.5039" xml:space="preserve" y="399.5955" clip-path="url(#clipPath2)" font-family="sans-serif" stroke="none">finished</text>
    </g>
    <g fill="rgb(255,255,153)" text-rendering="geometricPrecision" shape-rendering="geometricPrecision" transform="matrix(2,0,0,2,-636,-6)" stroke="rgb(255,255,153)">
      <path d="M383.1846 705.4027 L396.9846 686.9027 L507.3846 686.9027 L521.1846 705.4027 L507.3846 723.9027 L396.9846 723.9027 Z" fill-rule="evenodd" clip-path="url(#clipPath2)" stroke="none"/>
    </g>
    <g text-rendering="geometricPrecision" stroke-miterlimit="1.45" shape-rendering="geometricPrecision" transform="matrix(2,0,0,2,-636,-6)" stroke-linecap="butt">
      <path fill="none" d="M383.1846 705.4027 L396.9846 686.9027 L507.3846 686.9027 L521.1846 705.4027 L507.3846 723.9027 L396.9846 723.9027 Z" fill-rule="evenodd" clip-path="url(#clipPath2)"/>
      <text x="422.4951" xml:space="preserve" y="702.8597" clip-path="url(#clipPath2)" font-family="sans-serif" stroke="none">responding</text>
      <text x="431.5039" xml:space="preserve" y="716.266" clip-path="url(#clipPath2)" font-family="sans-serif" stroke="none">finished</text>
    </g>
    <g fill="rgb(255,204,153)" text-rendering="geometricPrecision" shape-rendering="geometricPrecision" transform="matrix(2,0,0,2,-636,-6)" stroke="rgb(255,204,153)">
      <path d="M401.6846 241.7702 L411.7845 223.2702 L492.5846 223.2702 L502.6846 241.7702 L492.5846 260.2702 L411.7845 260.2702 Z" fill-rule="evenodd" clip-path="url(#clipPath2)" stroke="none"/>
    </g>
    <g text-rendering="geometricPrecision" stroke-miterlimit="1.45" shape-rendering="geometricPrecision" transform="matrix(2,0,0,2,-636,-6)" stroke-linecap="butt">
      <path fill="none" d="M401.6846 241.7702 L411.7845 223.2702 L492.5846 223.2702 L502.6846 241.7702 L492.5846 260.2702 L411.7845 260.2702 Z" fill-rule="evenodd" clip-path="url(#clipPath2)"/>
      <text x="417.5" xml:space="preserve" y="245.9304" clip-path="url(#clipPath2)" font-family="sans-serif" stroke="none">receiveEvent</text>
    </g>
    <g fill="rgb(255,204,153)" text-rendering="geometricPrecision" shape-rendering="geometricPrecision" transform="matrix(2,0,0,2,-636,-6)" stroke="rgb(255,204,153)">
      <path d="M580.2566 30.318 L590.3566 11.818 L671.1566 11.818 L681.2566 30.318 L671.1566 48.818 L590.3566 48.818 Z" fill-rule="evenodd" clip-path="url(#clipPath2)" stroke="none"/>
    </g>
    <g text-rendering="geometricPrecision" stroke-miterlimit="1.45" shape-rendering="geometricPrecision" transform="matrix(2,0,0,2,-636,-6)" stroke-linecap="butt">
      <path fill="none" d="M580.2566 30.318 L590.3566 11.818 L671.1566 11.818 L681.2566 30.318 L671.1566 48.818 L590.3566 48.818 Z" fill-rule="evenodd" clip-path="url(#clipPath2)"/>
      <text x="596.072" xml:space="preserve" y="34.4782" clip-path="url(#clipPath2)" font-family="sans-serif" stroke="none">receiveEvent</text>
    </g>
    <g fill="rgb(255,204,153)" text-rendering="geometricPrecision" shape-rendering="geometricPrecision" transform="matrix(2,0,0,2,-636,-6)" stroke="rgb(255,204,153)">
      <path d="M580.2566 292.2322 L590.3566 273.7322 L671.1566 273.7322 L681.2566 292.2322 L671.1566 310.7322 L590.3566 310.7322 Z" fill-rule="evenodd" clip-path="url(#clipPath2)" stroke="none"/>
    </g>
    <g text-rendering="geometricPrecision" stroke-miterlimit="1.45" shape-rendering="geometricPrecision" transform="matrix(2,0,0,2,-636,-6)" stroke-linecap="butt">
      <path fill="none" d="M580.2566 292.2322 L590.3566 273.7322 L671.1566 273.7322 L681.2566 292.2322 L671.1566 310.7322 L590.3566 310.7322 Z" fill-rule="evenodd" clip-path="url(#clipPath2)"/>
      <text x="596.072" xml:space="preserve" y="296.3924" clip-path="url(#clipPath2)" font-family="sans-serif" stroke="none">receiveEvent</text>
    </g>
    <g fill="rgb(255,204,153)" text-rendering="geometricPrecision" shape-rendering="geometricPrecision" transform="matrix(2,0,0,2,-636,-6)" stroke="rgb(255,204,153)">
      <path d="M580.2566 497.3255 L590.3566 478.8255 L671.1566 478.8255 L681.2566 497.3255 L671.1566 515.8255 L590.3566 515.8255 Z" fill-rule="evenodd" clip-path="url(#clipPath2)" stroke="none"/>
    </g>
    <g text-rendering="geometricPrecision" stroke-miterlimit="1.45" shape-rendering="geometricPrecision" transform="matrix(2,0,0,2,-636,-6)" stroke-linecap="butt">
      <path fill="none" d="M580.2566 497.3255 L590.3566 478.8255 L671.1566 478.8255 L681.2566 497.3255 L671.1566 515.8255 L590.3566 515.8255 Z" fill-rule="evenodd" clip-path="url(#clipPath2)"/>
      <text x="596.072" xml:space="preserve" y="501.4857" clip-path="url(#clipPath2)" font-family="sans-serif" stroke="none">receiveEvent</text>
    </g>
    <g fill="rgb(255,204,153)" text-rendering="geometricPrecision" shape-rendering="geometricPrecision" transform="matrix(2,0,0,2,-636,-6)" stroke="rgb(255,204,153)">
      <path d="M580.2566 618.1046 L590.3566 599.6046 L671.1566 599.6046 L681.2566 618.1046 L671.1566 636.6046 L590.3566 636.6046 Z" fill-rule="evenodd" clip-path="url(#clipPath2)" stroke="none"/>
    </g>
    <g text-rendering="geometricPrecision" stroke-miterlimit="1.45" shape-rendering="geometricPrecision" transform="matrix(2,0,0,2,-636,-6)" stroke-linecap="butt">
      <path fill="none" d="M580.2566 618.1046 L590.3566 599.6046 L671.1566 599.6046 L681.2566 618.1046 L671.1566 636.6046 L590.3566 636.6046 Z" fill-rule="evenodd" clip-path="url(#clipPath2)"/>
      <text x="596.072" xml:space="preserve" y="622.2648" clip-path="url(#clipPath2)" font-family="sans-serif" stroke="none">receiveEvent</text>
      <rect fill="none" x="703.0412" width="74" height="45" y="417.9454" clip-path="url(#clipPath2)"/>
      <path stroke-miterlimit="10" d="M723.8449 435.4942 Q723.548 436.1036 723.0637 436.3692 Q722.5793 436.6349 721.8762 436.6349 Q720.673 436.6349 720.0949 435.8224 Q719.5324 435.0099 719.5324 433.3692 Q719.5324 430.0567 721.8762 430.0567 Q722.5949 430.0567 723.0637 430.3224 Q723.548 430.5724 723.8449 431.1505 L723.8605 431.1505 L723.8449 430.4474 L723.8449 427.8067 L724.8918 427.8067 L724.8918 435.1974 Q724.8918 436.1974 724.9387 436.5099 L723.923 436.5099 Q723.9074 436.4161 723.8762 436.0724 Q723.8605 435.7286 723.8605 435.4942 L723.8449 435.4942 ZM720.6418 433.338 Q720.6418 434.6661 720.9855 435.2442 Q721.3449 435.8067 722.1418 435.8067 Q723.0324 435.8067 723.4387 435.1974 Q723.8449 434.5724 723.8449 433.2599 Q723.8449 432.0099 723.4387 431.4317 Q723.0324 430.838 722.1574 430.838 Q721.3605 430.838 721.0012 431.4317 Q720.6418 432.0099 720.6418 433.338 ZM726.5031 428.8224 L726.5031 427.8067 L727.5656 427.8067 L727.5656 428.8224 L726.5031 428.8224 ZM726.5031 436.5099 L726.5031 430.1661 L727.5656 430.1661 L727.5656 436.5099 L726.5031 436.5099 ZM733.9348 434.7599 Q733.9348 435.6505 733.2629 436.1505 Q732.591 436.6349 731.3723 436.6349 Q730.1848 436.6349 729.5441 436.2442 Q728.9035 435.8536 728.7004 435.0255 L729.6379 434.838 Q729.7785 435.3536 730.2004 435.588 Q730.6223 435.8224 731.3723 435.8224 Q732.1691 435.8224 732.5441 435.588 Q732.9191 435.338 732.9191 434.838 Q732.9191 434.463 732.6535 434.2286 Q732.4035 433.9942 731.8254 433.838 L731.0754 433.6505 Q730.1535 433.4161 729.7629 433.1974 Q729.3879 432.963 729.1691 432.6349 Q728.966 432.3067 728.966 431.838 Q728.966 430.9786 729.5754 430.5255 Q730.2004 430.0724 731.3723 430.0724 Q732.4348 430.0724 733.0441 430.4474 Q733.6691 430.8067 733.8254 431.6192 L732.8723 431.7442 Q732.7941 431.3224 732.4035 431.1036 Q732.0285 430.8692 731.3723 430.8692 Q730.6691 430.8692 730.3254 431.088 Q729.9816 431.3067 729.9816 431.7442 Q729.9816 432.0099 730.1223 432.1817 Q730.2629 432.3536 730.5285 432.4786 Q730.8098 432.6036 731.7004 432.8224 Q732.5441 433.0411 732.9035 433.213 Q733.2785 433.3849 733.4816 433.6036 Q733.7004 433.8224 733.8098 434.1192 Q733.9348 434.4005 733.9348 434.7599 ZM735.9816 433.3067 Q735.9816 434.5724 736.3723 435.1817 Q736.7785 435.7911 737.591 435.7911 Q738.1535 435.7911 738.5285 435.4942 Q738.9035 435.1817 738.9973 434.5567 L740.0598 434.6192 Q739.9348 435.5411 739.2785 436.088 Q738.6223 436.6349 737.6066 436.6349 Q736.2785 436.6349 735.5754 435.7911 Q734.8879 434.9474 734.8879 433.338 Q734.8879 431.7286 735.591 430.9005 Q736.2941 430.0567 737.6066 430.0567 Q738.5754 430.0567 739.216 430.5567 Q739.8566 431.0567 740.0285 431.9474 L738.9348 432.0255 Q738.8566 431.4942 738.5129 431.1974 Q738.1848 430.8849 737.5754 430.8849 Q736.7316 430.8849 736.3566 431.4474 Q735.9816 431.9942 735.9816 433.3067 ZM742.7941 436.6349 Q741.841 436.6349 741.3566 436.1349 Q740.8879 435.6192 740.8879 434.7442 Q740.8879 433.7599 741.5285 433.2286 Q742.1848 432.6974 743.6223 432.6661 L745.0441 432.6349 L745.0441 432.2911 Q745.0441 431.5255 744.716 431.1974 Q744.3879 430.8536 743.6848 430.8536 Q742.9816 430.8536 742.6535 431.1036 Q742.3254 431.338 742.2629 431.8692 L741.1691 431.7599 Q741.4348 430.0567 743.7004 430.0567 Q744.9035 430.0567 745.4973 430.6036 Q746.1066 431.1505 746.1066 432.1817 L746.1066 434.9161 Q746.1066 435.3849 746.2316 435.6192 Q746.3566 435.8536 746.7004 435.8536 Q746.8566 435.8536 747.0441 435.8224 L747.0441 436.4786 Q746.6535 436.5724 746.2316 436.5724 Q745.6535 436.5724 745.3723 436.2599 Q745.1066 435.9474 745.0754 435.2911 L745.0441 435.2911 Q744.6379 436.0255 744.091 436.338 Q743.5598 436.6349 742.7941 436.6349 ZM743.0441 435.838 Q743.6223 435.838 744.0754 435.5724 Q744.5285 435.3067 744.7785 434.8536 Q745.0441 434.3849 745.0441 433.9005 L745.0441 433.3849 L743.8879 433.4005 Q743.1379 433.4161 742.7473 433.5567 Q742.3723 433.6974 742.1691 433.9942 Q741.966 434.2755 741.966 434.7599 Q741.966 435.2755 742.2473 435.5567 Q742.5285 435.838 743.0441 435.838 ZM747.8742 436.5099 L747.8742 431.6505 Q747.8742 430.9786 747.843 430.1661 L748.843 430.1661 Q748.8898 431.2442 748.8898 431.463 L748.9055 431.463 Q749.1555 430.6505 749.4836 430.3536 Q749.8117 430.0567 750.4211 430.0567 Q750.6242 430.0567 750.843 430.1036 L750.843 431.0724 Q750.6398 431.0255 750.2805 431.0255 Q749.6242 431.0255 749.2805 431.588 Q748.9367 432.1505 748.9367 433.1974 L748.9367 436.5099 L747.8742 436.5099 ZM755.8547 435.4942 Q755.5578 436.1036 755.0734 436.3692 Q754.5891 436.6349 753.8859 436.6349 Q752.6828 436.6349 752.1047 435.8224 Q751.5422 435.0099 751.5422 433.3692 Q751.5422 430.0567 753.8859 430.0567 Q754.6047 430.0567 755.0734 430.3224 Q755.5578 430.5724 755.8547 431.1505 L755.8703 431.1505 L755.8547 430.4474 L755.8547 427.8067 L756.9016 427.8067 L756.9016 435.1974 Q756.9016 436.1974 756.9484 436.5099 L755.9328 436.5099 Q755.9172 436.4161 755.8859 436.0724 Q755.8703 435.7286 755.8703 435.4942 L755.8547 435.4942 ZM752.6516 433.338 Q752.6516 434.6661 752.9953 435.2442 Q753.3547 435.8067 754.1516 435.8067 Q755.0422 435.8067 755.4484 435.1974 Q755.8547 434.5724 755.8547 433.2599 Q755.8547 432.0099 755.4484 431.4317 Q755.0422 430.838 754.1672 430.838 Q753.3703 430.838 753.0109 431.4317 Q752.6516 432.0099 752.6516 433.338 Z" clip-path="url(#clipPath3)" stroke-linecap="square" stroke="none"/>
      <path stroke-miterlimit="10" d="M712.5217 447.1368 Q712.5217 448.7931 711.7873 449.6212 Q711.0529 450.4337 709.6623 450.4337 Q708.2717 450.4337 707.5529 449.5899 Q706.8498 448.7306 706.8498 447.1368 Q706.8498 443.8556 709.6935 443.8556 Q711.1467 443.8556 711.8342 444.6524 Q712.5217 445.4493 712.5217 447.1368 ZM711.4123 447.1368 Q711.4123 445.8243 711.0217 445.2306 Q710.631 444.6368 709.7092 444.6368 Q708.7873 444.6368 708.3654 445.2462 Q707.9592 445.8399 707.9592 447.1368 Q707.9592 448.3868 708.3654 449.0274 Q708.7717 449.6524 709.6467 449.6524 Q710.5998 449.6524 711.006 449.0431 Q711.4123 448.4337 711.4123 447.1368 ZM714.8674 443.9649 L714.8674 447.9806 Q714.8674 448.6212 714.9924 448.9649 Q715.1174 449.3087 715.383 449.4649 Q715.6486 449.6056 716.1642 449.6056 Q716.9299 449.6056 717.3674 449.0899 Q717.8049 448.5743 717.8049 447.6368 L717.8049 443.9649 L718.8674 443.9649 L718.8674 448.9493 Q718.8674 450.0587 718.8986 450.3087 L717.8986 450.3087 Q717.8986 450.2774 717.883 450.1524 Q717.883 450.0274 717.8674 449.8556 Q717.8674 449.6837 717.8517 449.2306 L717.8361 449.2306 Q717.4767 449.8868 716.9924 450.1681 Q716.5236 450.4337 715.8205 450.4337 Q714.7736 450.4337 714.2892 449.9181 Q713.8049 449.3868 713.8049 448.1993 L713.8049 443.9649 L714.8674 443.9649 ZM722.9474 450.2618 Q722.4162 450.4024 721.8849 450.4024 Q720.6193 450.4024 720.6193 448.9649 L720.6193 444.7306 L719.8849 444.7306 L719.8849 443.9649 L720.6506 443.9649 L720.9631 442.5431 L721.6662 442.5431 L721.6662 443.9649 L722.8381 443.9649 L722.8381 444.7306 L721.6662 444.7306 L721.6662 448.7306 Q721.6662 449.1993 721.8068 449.3868 Q721.9631 449.5587 722.3381 449.5587 Q722.5412 449.5587 722.9474 449.4806 L722.9474 450.2618 ZM729.2033 447.1056 Q729.2033 450.4337 726.8752 450.4337 Q725.4064 450.4337 724.9064 449.3243 L724.8752 449.3243 Q724.8908 449.3712 724.8908 450.3243 L724.8908 452.7931 L723.8439 452.7931 L723.8439 445.2618 Q723.8439 444.2774 723.8127 443.9649 L724.8283 443.9649 Q724.8283 443.9962 724.8439 444.1368 Q724.8596 444.2774 724.8752 444.5743 Q724.8908 444.8712 724.8908 444.9806 L724.9064 444.9806 Q725.1877 444.4024 725.6408 444.1368 Q726.1096 443.8556 726.8752 443.8556 Q728.0471 443.8556 728.6252 444.6524 Q729.2033 445.4337 729.2033 447.1056 ZM728.0939 447.1368 Q728.0939 445.8087 727.7346 445.2462 Q727.3752 444.6681 726.5939 444.6681 Q725.9689 444.6681 725.6096 444.9337 Q725.2658 445.1993 725.0783 445.7618 Q724.8908 446.3243 724.8908 447.2149 Q724.8908 448.4649 725.2814 449.0587 Q725.6877 449.6524 726.5939 449.6524 Q727.3752 449.6524 727.7346 449.0743 Q728.0939 448.4962 728.0939 447.1368 ZM731.549 443.9649 L731.549 447.9806 Q731.549 448.6212 731.674 448.9649 Q731.799 449.3087 732.0646 449.4649 Q732.3303 449.6056 732.8459 449.6056 Q733.6115 449.6056 734.049 449.0899 Q734.4865 448.5743 734.4865 447.6368 L734.4865 443.9649 L735.549 443.9649 L735.549 448.9493 Q735.549 450.0587 735.5803 450.3087 L734.5803 450.3087 Q734.5803 450.2774 734.5646 450.1524 Q734.5646 450.0274 734.549 449.8556 Q734.549 449.6837 734.5334 449.2306 L734.5178 449.2306 Q734.1584 449.8868 733.674 450.1681 Q733.2053 450.4337 732.5021 450.4337 Q731.4553 450.4337 730.9709 449.9181 Q730.4865 449.3868 730.4865 448.1993 L730.4865 443.9649 L731.549 443.9649 ZM739.6291 450.2618 Q739.0978 450.4024 738.5666 450.4024 Q737.301 450.4024 737.301 448.9649 L737.301 444.7306 L736.5666 444.7306 L736.5666 443.9649 L737.3322 443.9649 L737.6447 442.5431 L738.3478 442.5431 L738.3478 443.9649 L739.5197 443.9649 L739.5197 444.7306 L738.3478 444.7306 L738.3478 448.7306 Q738.3478 449.1993 738.4885 449.3868 Q738.6447 449.5587 739.0197 449.5587 Q739.2228 449.5587 739.6291 449.4806 L739.6291 450.2618 ZM749.2189 447.1056 Q749.2189 450.4337 746.8908 450.4337 Q746.1721 450.4337 745.6877 450.1681 Q745.2033 449.9024 744.9064 449.3243 L744.9064 449.3243 Q744.9064 449.5118 744.8752 449.8868 Q744.8596 450.2462 744.8439 450.3087 L743.8283 450.3087 Q743.8596 449.9962 743.8596 448.9962 L743.8596 441.6056 L744.9064 441.6056 L744.9064 444.0899 Q744.9064 444.4649 744.8908 444.9806 L744.9064 444.9806 Q745.2033 444.3712 745.6877 444.1212 Q746.1721 443.8556 746.8908 443.8556 Q748.0939 443.8556 748.6564 444.6681 Q749.2189 445.4649 749.2189 447.1056 ZM748.1096 447.1368 Q748.1096 445.8087 747.7502 445.2462 Q747.4064 444.6681 746.6096 444.6681 Q745.7189 444.6681 745.3127 445.2774 Q744.9064 445.8868 744.9064 447.2149 Q744.9064 448.4493 745.2971 449.0587 Q745.7033 449.6524 746.6096 449.6524 Q747.4064 449.6524 747.7502 449.0587 Q748.1096 448.4649 748.1096 447.1368 ZM751.5646 443.9649 L751.5646 447.9806 Q751.5646 448.6212 751.6896 448.9649 Q751.8146 449.3087 752.0803 449.4649 Q752.3459 449.6056 752.8615 449.6056 Q753.6271 449.6056 754.0646 449.0899 Q754.5021 448.5743 754.5021 447.6368 L754.5021 443.9649 L755.5646 443.9649 L755.5646 448.9493 Q755.5646 450.0587 755.5959 450.3087 L754.5959 450.3087 Q754.5959 450.2774 754.5803 450.1524 Q754.5803 450.0274 754.5646 449.8556 Q754.5646 449.6837 754.549 449.2306 L754.5334 449.2306 Q754.174 449.8868 753.6896 450.1681 Q753.2209 450.4337 752.5178 450.4337 Q751.4709 450.4337 750.9865 449.9181 Q750.5021 449.3868 750.5021 448.1993 L750.5021 443.9649 L751.5646 443.9649 ZM758.5041 444.7306 L758.5041 450.3087 L757.4572 450.3087 L757.4572 444.7306 L756.5666 444.7306 L756.5666 443.9649 L757.4572 443.9649 L757.4572 443.2462 Q757.4572 442.3868 757.8322 442.0118 Q758.2228 441.6212 759.0041 441.6212 Q759.4416 441.6212 759.7541 441.6993 L759.7541 442.4962 Q759.4885 442.4493 759.2853 442.4493 Q758.8791 442.4493 758.6916 442.6524 Q758.5041 442.8556 758.5041 443.4024 L758.5041 443.9649 L759.7541 443.9649 L759.7541 444.7306 L758.5041 444.7306 ZM761.8381 444.7306 L761.8381 450.3087 L760.7912 450.3087 L760.7912 444.7306 L759.9006 444.7306 L759.9006 443.9649 L760.7912 443.9649 L760.7912 443.2462 Q760.7912 442.3868 761.1662 442.0118 Q761.5568 441.6212 762.3381 441.6212 Q762.7756 441.6212 763.0881 441.6993 L763.0881 442.4962 Q762.8224 442.4493 762.6193 442.4493 Q762.2131 442.4493 762.0256 442.6524 Q761.8381 442.8556 761.8381 443.4024 L761.8381 443.9649 L763.0881 443.9649 L763.0881 444.7306 L761.8381 444.7306 ZM764.6877 447.3556 Q764.6877 448.4493 765.1252 449.0431 Q765.5783 449.6368 766.4533 449.6368 Q767.1408 449.6368 767.5471 449.3712 Q767.9689 449.0899 768.1096 448.6681 L769.0314 448.9181 Q768.4689 450.4337 766.4533 450.4337 Q765.0471 450.4337 764.3127 449.5899 Q763.5783 448.7462 763.5783 447.0899 Q763.5783 445.5274 764.3127 444.6993 Q765.0471 443.8556 766.4064 443.8556 Q769.2033 443.8556 769.2033 447.2149 L769.2033 447.3556 L764.6877 447.3556 ZM768.1096 446.5587 Q768.0314 445.5431 767.6096 445.0899 Q767.1877 444.6368 766.3908 444.6368 Q765.6252 444.6368 765.1721 445.1524 Q764.7346 445.6524 764.6877 446.5587 L768.1096 446.5587 ZM770.5646 450.3087 L770.5646 445.4493 Q770.5646 444.7774 770.5334 443.9649 L771.5334 443.9649 Q771.5803 445.0431 771.5803 445.2618 L771.5959 445.2618 Q771.8459 444.4493 772.174 444.1524 Q772.5021 443.8556 773.1115 443.8556 Q773.3146 443.8556 773.5334 443.9024 L773.5334 444.8712 Q773.3303 444.8243 772.9709 444.8243 Q772.3146 444.8243 771.9709 445.3868 Q771.6271 445.9493 771.6271 446.9962 L771.6271 450.3087 L770.5646 450.3087 Z" clip-path="url(#clipPath3)" stroke-linecap="square" stroke="none"/>
    </g>
    <g fill="rgb(204,255,204)" text-rendering="geometricPrecision" shape-rendering="geometricPrecision" transform="matrix(2,0,0,2,-636,-6)" stroke="rgb(204,255,204)">
      <path d="M580.2566 79.337 L590.3566 60.837 L671.1566 60.837 L681.2566 79.337 L671.1566 97.837 L590.3566 97.837 Z" fill-rule="evenodd" clip-path="url(#clipPath2)" stroke="none"/>
    </g>
    <g text-rendering="geometricPrecision" stroke-miterlimit="1.45" shape-rendering="geometricPrecision" transform="matrix(2,0,0,2,-636,-6)" stroke-linecap="butt">
      <path fill="none" d="M580.2566 79.337 L590.3566 60.837 L671.1566 60.837 L681.2566 79.337 L671.1566 97.837 L590.3566 97.837 Z" fill-rule="evenodd" clip-path="url(#clipPath2)"/>
      <text x="595.4011" xml:space="preserve" y="83.4972" clip-path="url(#clipPath2)" font-family="sans-serif" stroke="none">requestEvent</text>
    </g>
    <g fill="rgb(204,255,204)" text-rendering="geometricPrecision" shape-rendering="geometricPrecision" transform="matrix(2,0,0,2,-636,-6)" stroke="rgb(204,255,204)">
      <path d="M580.2566 168.2892 L590.3566 149.7892 L671.1566 149.7892 L681.2566 168.2892 L671.1566 186.7892 L590.3566 186.7892 Z" fill-rule="evenodd" clip-path="url(#clipPath2)" stroke="none"/>
    </g>
    <g text-rendering="geometricPrecision" stroke-miterlimit="1.45" shape-rendering="geometricPrecision" transform="matrix(2,0,0,2,-636,-6)" stroke-linecap="butt">
      <path fill="none" d="M580.2566 168.2892 L590.3566 149.7892 L671.1566 149.7892 L681.2566 168.2892 L671.1566 186.7892 L590.3566 186.7892 Z" fill-rule="evenodd" clip-path="url(#clipPath2)"/>
      <text x="595.4011" xml:space="preserve" y="172.4494" clip-path="url(#clipPath2)" font-family="sans-serif" stroke="none">requestEvent</text>
    </g>
    <g fill="rgb(204,255,204)" text-rendering="geometricPrecision" shape-rendering="geometricPrecision" transform="matrix(2,0,0,2,-636,-6)" stroke="rgb(204,255,204)">
      <path d="M580.2566 341.2322 L590.3566 322.7322 L671.1566 322.7322 L681.2566 341.2322 L671.1566 359.7322 L590.3566 359.7322 Z" fill-rule="evenodd" clip-path="url(#clipPath2)" stroke="none"/>
    </g>
    <g text-rendering="geometricPrecision" stroke-miterlimit="1.45" shape-rendering="geometricPrecision" transform="matrix(2,0,0,2,-636,-6)" stroke-linecap="butt">
      <path fill="none" d="M580.2566 341.2322 L590.3566 322.7322 L671.1566 322.7322 L681.2566 341.2322 L671.1566 359.7322 L590.3566 359.7322 Z" fill-rule="evenodd" clip-path="url(#clipPath2)"/>
      <text x="595.4011" xml:space="preserve" y="345.3924" clip-path="url(#clipPath2)" font-family="sans-serif" stroke="none">requestEvent</text>
    </g>
    <g fill="rgb(204,255,204)" text-rendering="geometricPrecision" shape-rendering="geometricPrecision" transform="matrix(2,0,0,2,-636,-6)" stroke="rgb(204,255,204)">
      <path d="M580.2566 665.1046 L590.3566 646.6046 L671.1566 646.6046 L681.2566 665.1046 L671.1566 683.6046 L590.3566 683.6046 Z" fill-rule="evenodd" clip-path="url(#clipPath2)" stroke="none"/>
    </g>
    <g text-rendering="geometricPrecision" stroke-miterlimit="1.45" shape-rendering="geometricPrecision" transform="matrix(2,0,0,2,-636,-6)" stroke-linecap="butt">
      <path fill="none" d="M580.2566 665.1046 L590.3566 646.6046 L671.1566 646.6046 L681.2566 665.1046 L671.1566 683.6046 L590.3566 683.6046 Z" fill-rule="evenodd" clip-path="url(#clipPath2)"/>
      <text x="595.4011" xml:space="preserve" y="669.2648" clip-path="url(#clipPath2)" font-family="sans-serif" stroke="none">requestEvent</text>
    </g>
    <g fill="rgb(153,204,255)" text-rendering="geometricPrecision" shape-rendering="geometricPrecision" transform="matrix(2,0,0,2,-636,-6)" stroke="rgb(153,204,255)">
      <rect x="777.0412" y="559.775" clip-path="url(#clipPath2)" width="110.575" rx="18.5" ry="18.5" height="37" stroke="none"/>
    </g>
    <g text-rendering="geometricPrecision" stroke-miterlimit="1.45" shape-rendering="geometricPrecision" transform="matrix(2,0,0,2,-636,-6)" stroke-linecap="butt">
      <rect x="777.0412" y="559.775" clip-path="url(#clipPath2)" fill="none" width="110.575" rx="18.5" ry="18.5" height="37"/>
      <text x="808.317" xml:space="preserve" y="575.7321" clip-path="url(#clipPath2)" font-family="sans-serif" stroke="none">I2Cstate/</text>
      <text x="792.6402" xml:space="preserve" y="589.1383" clip-path="url(#clipPath2)" font-family="sans-serif" stroke="none">typical function</text>
    </g>
    <g fill="rgb(255,255,153)" text-rendering="geometricPrecision" shape-rendering="geometricPrecision" transform="matrix(2,0,0,2,-636,-6)" stroke="rgb(255,255,153)">
      <path d="M774.8287 621.6898 L786.3287 603.1898 L878.3287 603.1898 L889.8287 621.6898 L878.3287 640.1898 L786.3287 640.1898 Z" fill-rule="evenodd" clip-path="url(#clipPath2)" stroke="none"/>
    </g>
    <g text-rendering="geometricPrecision" stroke-miterlimit="1.45" shape-rendering="geometricPrecision" transform="matrix(2,0,0,2,-636,-6)" stroke-linecap="butt">
      <path fill="none" d="M774.8287 621.6898 L786.3287 603.1898 L878.3287 603.1898 L889.8287 621.6898 L878.3287 640.1898 L786.3287 640.1898 Z" fill-rule="evenodd" clip-path="url(#clipPath2)"/>
      <text x="782.9752" xml:space="preserve" y="619.1469" clip-path="url(#clipPath2)" font-family="sans-serif" stroke="none">regular/algorithmic</text>
      <text x="817.6509" xml:space="preserve" y="632.5531" clip-path="url(#clipPath2)" font-family="sans-serif" stroke="none">event</text>
    </g>
    <g fill="rgb(204,255,204)" text-rendering="geometricPrecision" shape-rendering="geometricPrecision" transform="matrix(2,0,0,2,-636,-6)" stroke="rgb(204,255,204)">
      <path d="M781.8287 708.5194 L791.9286 690.0194 L872.7287 690.0194 L882.8287 708.5194 L872.7287 727.0194 L791.9286 727.0194 Z" fill-rule="evenodd" clip-path="url(#clipPath2)" stroke="none"/>
    </g>
    <g text-rendering="geometricPrecision" stroke-miterlimit="1.45" shape-rendering="geometricPrecision" transform="matrix(2,0,0,2,-636,-6)" stroke-linecap="butt">
      <path fill="none" d="M781.8287 708.5194 L791.9286 690.0194 L872.7287 690.0194 L882.8287 708.5194 L872.7287 727.0194 L791.9286 727.0194 Z" fill-rule="evenodd" clip-path="url(#clipPath2)"/>
      <text x="793.9732" xml:space="preserve" y="705.9764" clip-path="url(#clipPath2)" font-family="sans-serif" stroke="none">interrupt event</text>
      <text x="800.981" xml:space="preserve" y="719.3827" clip-path="url(#clipPath2)" font-family="sans-serif" stroke="none">I2C-request</text>
    </g>
    <g fill="rgb(255,204,153)" text-rendering="geometricPrecision" shape-rendering="geometricPrecision" transform="matrix(2,0,0,2,-636,-6)" stroke="rgb(255,204,153)">
      <path d="M781.8287 665.1046 L791.9286 646.6046 L872.7287 646.6046 L882.8287 665.1046 L872.7287 683.6046 L791.9286 683.6046 Z" fill-rule="evenodd" clip-path="url(#clipPath2)" stroke="none"/>
    </g>
    <g text-rendering="geometricPrecision" stroke-miterlimit="1.45" shape-rendering="geometricPrecision" transform="matrix(2,0,0,2,-636,-6)" stroke-linecap="butt">
      <path fill="none" d="M781.8287 665.1046 L791.9286 646.6046 L872.7287 646.6046 L882.8287 665.1046 L872.7287 683.6046 L791.9286 683.6046 Z" fill-rule="evenodd" clip-path="url(#clipPath2)"/>
      <text x="793.9732" xml:space="preserve" y="662.5616" clip-path="url(#clipPath2)" font-family="sans-serif" stroke="none">interrupt event</text>
      <text x="801.6519" xml:space="preserve" y="675.9679" clip-path="url(#clipPath2)" font-family="sans-serif" stroke="none">I2C-receive</text>
      <path fill="none" d="M452.1846 520.97 L452.1846 543.2639" stroke-width="2" clip-path="url(#clipPath2)"/>
      <path d="M452.1846 552.2639 L457.8096 538.7639 L452.1846 542.1389 L446.5596 538.7639 Z" stroke-width="2" clip-path="url(#clipPath2)" stroke="none"/>
      <path fill="none" d="M452.1846 589.3069 L452.1846 605.5159" stroke-width="2" clip-path="url(#clipPath2)"/>
      <path d="M452.1846 614.5159 L457.8096 601.0159 L452.1846 604.3909 L446.5596 601.0159 Z" stroke-width="2" clip-path="url(#clipPath2)" stroke="none"/>
      <path fill="none" d="M452.1846 53.9528 L452.1846 68.661" stroke-width="2" clip-path="url(#clipPath2)"/>
      <path d="M452.1846 77.661 L457.8096 64.161 L452.1846 67.536 L446.5596 64.161 Z" stroke-width="2" clip-path="url(#clipPath2)" stroke="none"/>
      <path fill="none" d="M452.1846 114.6606 L452.1846 135.6957" stroke-width="2" clip-path="url(#clipPath2)"/>
      <path d="M452.1846 144.6957 L457.8096 131.1957 L452.1846 134.5707 L446.5596 131.1957 Z" stroke-width="2" clip-path="url(#clipPath2)" stroke="none"/>
      <path fill="none" d="M452.1846 338.8957 L452.1846 362.1895" clip-path="url(#clipPath2)"/>
      <path d="M452.1846 370.1895 L457.1846 358.1895 L452.1846 361.1895 L447.1846 358.1895 Z" clip-path="url(#clipPath2)" stroke="none"/>
      <path fill="none" stroke-dasharray="6,2" d="M567.6722 388.7322 L529.1783 388.7322" clip-path="url(#clipPath2)"/>
      <path stroke-dasharray="6,2" d="M521.1783 388.7322 L533.1783 393.7322 L530.1783 388.7322 L533.1783 383.7322 Z" clip-path="url(#clipPath2)" stroke="none"/>
      <path fill="none" d="M452.1846 407.2111 L452.1846 464.6969" stroke-width="2" clip-path="url(#clipPath2)"/>
      <path d="M452.1846 473.6969 L457.8096 460.1969 L452.1846 463.5719 L446.5596 460.1969 Z" stroke-width="2" clip-path="url(#clipPath2)" stroke="none"/>
      <text x="413.5996" xml:space="preserve" y="437.9283" clip-path="url(#clipPath2)" font-family="sans-serif" stroke="none">buffer </text>
      <text x="410.9394" xml:space="preserve" y="451.3345" clip-path="url(#clipPath2)" font-family="sans-serif" stroke="none">is filled</text>
      <path fill="none" d="M383.1732 388.7322 L321.5 388.7322 L321.5 168.2892 L380.1076 168.2892" stroke-width="2" clip-path="url(#clipPath2)"/>
      <path d="M389.1076 168.2892 L375.6076 162.6642 L378.9826 168.2892 L375.6076 173.9142 Z" stroke-width="2" clip-path="url(#clipPath2)" stroke="none"/>
      <text x="331.7109" xml:space="preserve" y="368.783" clip-path="url(#clipPath2)" font-family="sans-serif" stroke="none">buffer </text>
      <text x="326.3818" xml:space="preserve" y="382.1892" clip-path="url(#clipPath2)" font-family="sans-serif" stroke="none">is empty</text>
      <path fill="none" d="M452.1846 661.7312 L452.1846 677.9362" stroke-width="2" clip-path="url(#clipPath2)"/>
      <path d="M452.1846 686.9362 L457.8096 673.4362 L452.1846 676.8112 L446.5596 673.4362 Z" stroke-width="2" clip-path="url(#clipPath2)" stroke="none"/>
      <path fill="none" d="M383.1732 705.4027 L321.5 705.4027 L321.5 168.2892 L380.1076 168.2892" stroke-width="2" clip-path="url(#clipPath2)"/>
      <path d="M389.1076 168.2892 L375.6076 162.6642 L378.9826 168.2892 L375.6076 173.9142 Z" stroke-width="2" clip-path="url(#clipPath2)" stroke="none"/>
      <path fill="none" d="M452.1846 191.9337 L452.1846 214.2275" stroke-width="2" clip-path="url(#clipPath2)"/>
      <path d="M452.1846 223.2275 L457.8096 209.7275 L452.1846 213.1025 L446.5596 209.7275 Z" stroke-width="2" clip-path="url(#clipPath2)" stroke="none"/>
      <path fill="none" d="M452.1846 260.2481 L452.1846 282.6439" stroke-width="2" clip-path="url(#clipPath2)"/>
      <path d="M452.1846 291.6439 L457.8096 278.1439 L452.1846 281.5189 L446.5596 278.1439 Z" stroke-width="2" clip-path="url(#clipPath2)" stroke="none"/>
      <path fill="none" stroke-dasharray="6,2" d="M515.269 30.318 L572.259 30.318" clip-path="url(#clipPath2)"/>
      <path stroke-dasharray="6,2" d="M580.259 30.318 L568.259 25.318 L571.259 30.318 L568.259 35.318 Z" clip-path="url(#clipPath2)" stroke="none"/>
      <path fill="none" stroke-dasharray="6,2" d="M586.1572 19.5084 L586.1136 19.4996 L563.7921 16.795 L541.4706 15.8935 L519.5526 16.7787 L519.4533 16.7907" clip-path="url(#clipPath2)"/>
      <path stroke-dasharray="6,2" d="M511.5075 17.7205 L524.0073 21.292 L520.4465 16.6745 L522.8451 11.3598 Z" clip-path="url(#clipPath2)" stroke="none"/>
      <path fill="none" stroke-dasharray="6,2" d="M513.8739 307.2991 L575.6525 299.3354" clip-path="url(#clipPath2)"/>
      <path stroke-dasharray="6,2" d="M583.5869 298.3127 L571.0461 294.8879 L574.6607 299.4633 L572.3246 304.8058 Z" clip-path="url(#clipPath2)" stroke="none"/>
      <path fill="none" stroke-dasharray="6,2" d="M681.2804 292.2322 L718.371 292.2322 L718.371 388.7322 L701.8578 388.7322" clip-path="url(#clipPath2)"/>
      <path stroke-dasharray="6,2" d="M693.8578 388.7322 L705.8578 393.7322 L702.8578 388.7322 L705.8578 383.7322 Z" clip-path="url(#clipPath2)" stroke="none"/>
      <path fill="none" stroke-dasharray="6,2" d="M515.269 497.3255 L572.259 497.3255" clip-path="url(#clipPath2)"/>
      <path stroke-dasharray="6,2" d="M580.259 497.3255 L568.259 492.3255 L571.259 497.3255 L568.259 502.3255 Z" clip-path="url(#clipPath2)" stroke="none"/>
      <path fill="none" stroke-dasharray="6,2" d="M514.2227 631.1564 L575.2084 624.326" clip-path="url(#clipPath2)"/>
      <path stroke-dasharray="6,2" d="M583.1587 623.4355 L570.6768 619.8023 L574.2146 624.4373 L571.7898 629.7402 Z" clip-path="url(#clipPath2)" stroke="none"/>
      <path fill="none" stroke-dasharray="6,2" d="M583.2251 612.686 L562.3346 612.5912 L539.9159 614.2236 L517.6915 617.5912 L514.6854 618.2875" clip-path="url(#clipPath2)"/>
      <path stroke-dasharray="6,2" d="M506.8917 620.0927 L519.7104 622.2559 L515.6595 618.0618 L517.4539 612.5138 Z" clip-path="url(#clipPath2)" stroke="none"/>
      <path fill="none" stroke-dasharray="6,2" d="M498.7661 407.2282 L582.4221 440.4454 L695.0412 440.4454" clip-path="url(#clipPath2)"/>
      <path stroke-dasharray="6,2" d="M703.0412 440.4454 L691.0412 435.4454 L694.0412 440.4454 L691.0412 445.4454 Z" clip-path="url(#clipPath2)" stroke="none"/>
      <text x="524.757" xml:space="preserve" y="450.9483" clip-path="url(#clipPath2)" font-family="sans-serif" stroke="none"> state is </text>
      <text x="529.0841" xml:space="preserve" y="464.3545" clip-path="url(#clipPath2)" font-family="sans-serif" stroke="none">tainted</text>
      <path fill="none" stroke-dasharray="6,2" d="M681.2634 497.3255 L740.0412 497.3255 L740.0412 470.9454" clip-path="url(#clipPath2)"/>
      <path stroke-dasharray="6,2" d="M740.0412 462.9454 L735.0412 474.9454 L740.0412 471.9454 L745.0412 474.9454 Z" clip-path="url(#clipPath2)" stroke="none"/>
      <path fill="none" stroke-dasharray="6,2" d="M740.0412 417.9454 L740.0412 220.2581 L587.8173 220.2581 L511.7424 191.1093" clip-path="url(#clipPath2)"/>
      <path stroke-dasharray="6,2" d="M504.272 188.247 L513.6887 197.2095 L512.6762 191.4671 L517.2666 187.8715 Z" clip-path="url(#clipPath2)" stroke="none"/>
      <path fill="none" stroke-dasharray="6,2" d="M509.3398 46.0074 L579.1411 65.1683" clip-path="url(#clipPath2)"/>
      <path stroke-dasharray="6,2" d="M586.8557 67.286 L576.6073 59.2878 L578.1767 64.9035 L573.9601 68.931 Z" clip-path="url(#clipPath2)" stroke="none"/>
      <path fill="none" stroke-dasharray="6,2" d="M580.6429 78.643 L559.7214 75.784 L537.1285 70.6453 L515.0784 63.5293 L499.8766 57.1021 L499.7882 57.0554" clip-path="url(#clipPath2)"/>
      <path stroke-dasharray="6,2" d="M492.456 53.8556 L501.4545 63.2379 L500.7047 57.4553 L505.4542 54.0726 Z" clip-path="url(#clipPath2)" stroke="none"/>
      <path fill="none" stroke-dasharray="6,2" d="M515.269 168.2892 L572.259 168.2892" clip-path="url(#clipPath2)"/>
      <path stroke-dasharray="6,2" d="M580.259 168.2892 L568.259 163.2892 L571.259 168.2892 L568.259 173.2892 Z" clip-path="url(#clipPath2)" stroke="none"/>
      <path fill="none" stroke-dasharray="6,2" d="M587.4651 155.0421 L586.1136 154.6993 L563.7921 151.3018 L541.4706 150.1693 L519.149 151.3018 L517.4231 151.5645" clip-path="url(#clipPath2)"/>
      <path stroke-dasharray="6,2" d="M509.5142 152.7683 L522.1299 155.9057 L518.4117 151.414 L520.6252 146.0195 Z" clip-path="url(#clipPath2)" stroke="none"/>
      <path fill="none" stroke-dasharray="6,2" d="M513.5251 324.1758 L576.0447 333.272" clip-path="url(#clipPath2)"/>
      <path stroke-dasharray="6,2" d="M583.9613 334.4238 L572.8062 327.7482 L575.0551 333.128 L571.3665 337.644 Z" clip-path="url(#clipPath2)" stroke="none"/>
      <path fill="none" stroke-dasharray="6,2" d="M681.2804 341.2322 L718.371 341.2322 L718.371 388.7322 L701.8578 388.7322" clip-path="url(#clipPath2)"/>
      <path stroke-dasharray="6,2" d="M693.8578 388.7322 L705.8578 393.7322 L702.8578 388.7322 L705.8578 383.7322 Z" clip-path="url(#clipPath2)" stroke="none"/>
      <path fill="none" stroke-dasharray="6,2" d="M513.4379 647.3661 L576.1883 656.8539" clip-path="url(#clipPath2)"/>
      <path stroke-dasharray="6,2" d="M584.0984 658.0499 L572.9808 651.3121 L575.1995 656.7044 L571.4857 661.1996 Z" clip-path="url(#clipPath2)" stroke="none"/>
      <path fill="none" stroke-dasharray="6,2" d="M582.2548 668.8344 L561.7975 668.171 L539.3431 665.6754 L517.1545 661.421 L512.1528 660.0491" clip-path="url(#clipPath2)"/>
      <path stroke-dasharray="6,2" d="M504.4377 657.9329 L514.6877 665.9291 L513.1171 660.3136 L517.3329 656.2853 Z" clip-path="url(#clipPath2)" stroke="none"/>
      <path fill="none" d="M784.1441 511.4454 L865.8287 511.4454" stroke-width="2" clip-path="url(#clipPath2)"/>
      <path d="M874.8287 511.4454 L861.3287 505.8204 L864.7037 511.4454 L861.3287 517.0704 Z" stroke-width="2" clip-path="url(#clipPath2)" stroke="none"/>
      <text x="772.4571" xml:space="preserve" y="504.9024" clip-path="url(#clipPath2)" font-family="sans-serif" stroke="none">regular flow of events</text>
      <path fill="none" stroke-dasharray="6,2" d="M784.1441 541.4454 L866.8287 541.4454" clip-path="url(#clipPath2)"/>
      <path stroke-dasharray="6,2" d="M874.8287 541.4454 L862.8287 536.4454 L865.8287 541.4454 L862.8287 546.4454 Z" clip-path="url(#clipPath2)" stroke="none"/>
      <text x="769.126" xml:space="preserve" y="534.9024" clip-path="url(#clipPath2)" font-family="sans-serif" stroke="none">irregular flow of events</text>
    </g>
  </g>
</svg>
